<svg width="18" height="15" viewBox="0 0 18 15" fill="none" xmlns="http://www.w3.org/2000/svg">
<g id="Frame">
<g clip-path="url(#clip0_24_1226)">
<path id="Vector" d="M2.625 4.25C2.625 3.32174 2.99375 2.4315 3.65013 1.77513C4.3065 1.11875 5.19674 0.75 6.125 0.75C7.05326 0.75 7.9435 1.11875 8.59987 1.77513C9.25625 2.4315 9.625 3.32174 9.625 4.25C9.625 5.17826 9.25625 6.0685 8.59987 6.72487C7.9435 7.38125 7.05326 7.75 6.125 7.75C5.19674 7.75 4.3065 7.38125 3.65013 6.72487C2.99375 6.0685 2.625 5.17826 2.625 4.25ZM0 13.9379C0 11.2445 2.18203 9.0625 4.87539 9.0625H7.37461C10.068 9.0625 12.25 11.2445 12.25 13.9379C12.25 14.3863 11.8863 14.75 11.4379 14.75H0.812109C0.363672 14.75 0 14.3863 0 13.9379ZM16.6605 14.75H12.8898C13.0375 14.493 13.125 14.1949 13.125 13.875V13.6562C13.125 11.9965 12.384 10.5063 11.2164 9.50547C11.282 9.50274 11.3449 9.5 11.4105 9.5H13.0895C15.5258 9.5 17.5 11.4742 17.5 13.9105C17.5 14.3754 17.1227 14.75 16.6605 14.75ZM11.8125 7.75C10.9648 7.75 10.1992 7.40547 9.64414 6.85039C10.1828 6.12305 10.5 5.22344 10.5 4.25C10.5 3.51719 10.3195 2.82539 9.99961 2.21836C10.5082 1.84648 11.1344 1.625 11.8125 1.625C13.5051 1.625 14.875 2.99492 14.875 4.6875C14.875 6.38008 13.5051 7.75 11.8125 7.75Z" fill="#4B5563"/>
</g>
</g>
<defs>
<clipPath id="clip0_24_1226">
<path d="M0 0.75H17.5V14.75H0V0.75Z" fill="white"/>
</clipPath>
</defs>
</svg>
