<svg width="46" height="36" viewBox="0 0 46 36" fill="none" xmlns="http://www.w3.org/2000/svg">
<g id="Frame">
<g clip-path="url(#clip0_4_1340)">
<path id="Vector" d="M19.829 2.41152C17.8532 0.435742 14.6469 0.435742 12.6711 2.41152L2.91177 12.1709C0.935986 14.1467 0.935986 17.3529 2.91177 19.3287L12.6711 29.0881C14.6469 31.0639 17.8532 31.0639 19.829 29.0881L29.5883 19.3287C31.5641 17.3529 31.5641 14.1467 29.5883 12.1709L19.829 2.41152ZM14.5625 15.7498C14.5625 15.3023 14.7403 14.873 15.0568 14.5566C15.3733 14.2401 15.8025 14.0623 16.25 14.0623C16.6976 14.0623 17.1268 14.2401 17.4433 14.5566C17.7598 14.873 17.9375 15.3023 17.9375 15.7498C17.9375 16.1974 17.7598 16.6266 17.4433 16.943C17.1268 17.2595 16.6976 17.4373 16.25 17.4373C15.8025 17.4373 15.3733 17.2595 15.0568 16.943C14.7403 16.6266 14.5625 16.1974 14.5625 15.7498ZM7.25005 14.0623C7.6976 14.0623 8.12682 14.2401 8.44329 14.5566C8.75976 14.873 8.93755 15.3023 8.93755 15.7498C8.93755 16.1974 8.75976 16.6266 8.44329 16.943C8.12682 17.2595 7.6976 17.4373 7.25005 17.4373C6.8025 17.4373 6.37327 17.2595 6.05681 16.943C5.74034 16.6266 5.56255 16.1974 5.56255 15.7498C5.56255 15.3023 5.74034 14.873 6.05681 14.5566C6.37327 14.2401 6.8025 14.0623 7.25005 14.0623ZM16.25 26.4373C15.8025 26.4373 15.3733 26.2595 15.0568 25.943C14.7403 25.6266 14.5625 25.1974 14.5625 24.7498C14.5625 24.3023 14.7403 23.873 15.0568 23.5566C15.3733 23.2401 15.8025 23.0623 16.25 23.0623C16.6976 23.0623 17.1268 23.2401 17.4433 23.5566C17.7598 23.873 17.9375 24.3023 17.9375 24.7498C17.9375 25.1974 17.7598 25.6266 17.4433 25.943C17.1268 26.2595 16.6976 26.4373 16.25 26.4373ZM25.25 14.0623C25.6976 14.0623 26.1268 14.2401 26.4433 14.5566C26.7598 14.873 26.9375 15.3023 26.9375 15.7498C26.9375 16.1974 26.7598 16.6266 26.4433 16.943C26.1268 17.2595 25.6976 17.4373 25.25 17.4373C24.8025 17.4373 24.3733 17.2595 24.0568 16.943C23.7403 16.6266 23.5625 16.1974 23.5625 15.7498C23.5625 15.3023 23.7403 14.873 24.0568 14.5566C24.3733 14.2401 24.8025 14.0623 25.25 14.0623ZM16.25 8.4373C15.8025 8.4373 15.3733 8.25952 15.0568 7.94305C14.7403 7.62658 14.5625 7.19736 14.5625 6.7498C14.5625 6.30225 14.7403 5.87303 15.0568 5.55656C15.3733 5.24009 15.8025 5.0623 16.25 5.0623C16.6976 5.0623 17.1268 5.24009 17.4433 5.55656C17.7598 5.87303 17.9375 6.30225 17.9375 6.7498C17.9375 7.19736 17.7598 7.62658 17.4433 7.94305C17.1268 8.25952 16.6976 8.4373 16.25 8.4373ZM23 31.4998C23 33.9818 25.018 35.9998 27.5 35.9998H41C43.4821 35.9998 45.5 33.9818 45.5 31.4998V17.9998C45.5 15.5178 43.4821 13.4998 41 13.4998H32.9633C33.779 16.0311 33.1813 18.9139 31.1774 20.9178L23 29.0951V31.4998ZM34.25 23.0623C34.6976 23.0623 35.1268 23.2401 35.4433 23.5566C35.7598 23.873 35.9375 24.3023 35.9375 24.7498C35.9375 25.1974 35.7598 25.6266 35.4433 25.943C35.1268 26.2595 34.6976 26.4373 34.25 26.4373C33.8025 26.4373 33.3733 26.2595 33.0568 25.943C32.7403 25.6266 32.5625 25.1974 32.5625 24.7498C32.5625 24.3023 32.7403 23.873 33.0568 23.5566C33.3733 23.2401 33.8025 23.0623 34.25 23.0623Z" fill="#F59E0B"/>
</g>
</g>
<defs>
<clipPath id="clip0_4_1340">
<path d="M0.5 0H45.5V36H0.5V0Z" fill="white"/>
</clipPath>
</defs>
</svg>
