<svg width="36" height="36" viewBox="0 0 36 36" fill="none" xmlns="http://www.w3.org/2000/svg">
<g id="Frame">
<g clip-path="url(#clip0_4_1325)">
<path id="Vector" d="M35.093 0.44286C35.6625 0.864735 36 1.53973 36 2.24989V7.31239V25.8749C36 28.9827 32.9766 31.4999 29.25 31.4999C25.5234 31.4999 22.5 28.9827 22.5 25.8749C22.5 22.7671 25.5234 20.2499 29.25 20.2499C30.0375 20.2499 30.7969 20.3624 31.5 20.5733V10.3358L13.5 15.7358V30.3749C13.5 33.4827 10.4766 35.9999 6.75 35.9999C3.02344 35.9999 0 33.4827 0 30.3749C0 27.2671 3.02344 24.7499 6.75 24.7499C7.5375 24.7499 8.29688 24.8624 9 25.0733V14.0624V8.99989C9 8.00848 9.65391 7.12958 10.6031 6.8413L33.1031 0.0912972C33.7852 -0.112609 34.5234 0.0139534 35.093 0.44286Z" fill="#F59E0B"/>
</g>
</g>
<defs>
<clipPath id="clip0_4_1325">
<path d="M0 0H36V36H0V0Z" fill="white"/>
</clipPath>
</defs>
</svg>
