<svg width="36" height="36" viewBox="0 0 36 36" fill="none" xmlns="http://www.w3.org/2000/svg">
<g id="Frame">
<g clip-path="url(#clip0_4_1330)">
<path id="Vector" d="M6.08906 4.5L12.0797 10.4906C13.6758 8.55703 14.625 6.075 14.625 3.375C14.625 2.34141 14.4844 1.34297 14.2242 0.39375C11.1516 1.05469 8.36719 2.49609 6.08906 4.5ZM4.5 6.08906C2.49609 8.36719 1.05469 11.1516 0.39375 14.2242C1.34297 14.4844 2.34141 14.625 3.375 14.625C6.075 14.625 8.55703 13.6758 10.4977 12.0867L4.5 6.08906ZM18 0C17.4867 0 16.9734 0.0210937 16.4672 0.0632812C16.7344 1.125 16.875 2.23594 16.875 3.375C16.875 6.70078 15.6727 9.73828 13.6828 12.0938L18 16.4109L29.9109 4.5C26.7328 1.70156 22.5633 0 18 0ZM3.375 16.875C2.23594 16.875 1.125 16.7344 0.0632812 16.4672C0.0210937 16.9734 0 17.4867 0 18C0 22.5633 1.70156 26.7328 4.5 29.9109L16.4109 18L12.0938 13.6828C9.73828 15.6727 6.70078 16.875 3.375 16.875ZM35.9367 19.5328C35.9789 19.0266 36 18.5133 36 18C36 13.4367 34.2984 9.26719 31.5 6.08906L19.5891 18L23.9062 22.3172C26.2547 20.3273 29.2992 19.125 32.625 19.125C33.7641 19.125 34.875 19.2656 35.9367 19.5328ZM35.6063 21.7758C34.657 21.5156 33.6586 21.375 32.625 21.375C29.925 21.375 27.443 22.3242 25.5023 23.9133L31.5 29.9109C33.5039 27.6398 34.9523 24.8555 35.6063 21.7758ZM23.9133 25.5023C22.3242 27.443 21.375 29.925 21.375 32.625C21.375 33.6586 21.5156 34.657 21.7758 35.6063C24.8484 34.9453 27.6328 33.5039 29.9109 31.5L23.9203 25.5094L23.9133 25.5023ZM22.3172 23.9062L18 19.5891L6.08906 31.5C9.26016 34.2984 13.4297 36 18 36C18.5133 36 19.0266 35.9789 19.5328 35.9367C19.2656 34.875 19.125 33.7641 19.125 32.625C19.125 29.2992 20.3273 26.2617 22.3172 23.9062Z" fill="#F59E0B"/>
</g>
</g>
<defs>
<clipPath id="clip0_4_1330">
<path d="M0 0H36V36H0V0Z" fill="white"/>
</clipPath>
</defs>
</svg>
