<svg width="13" height="16" viewBox="0 0 13 16" fill="none" xmlns="http://www.w3.org/2000/svg">
<g id="Frame">
<!-- <path d="M0.1875 0H12.1875V16H0.1875V0Z" stroke="#E5E7EB"/> -->
<path id="Vector" d="M10.8937 4.70615C11.2843 4.31553 11.2843 3.68115 10.8937 3.29053C10.503 2.8999 9.86865 2.8999 9.47803 3.29053L6.1874 6.58428L2.89365 3.29365C2.50303 2.90303 1.86865 2.90303 1.47803 3.29365C1.0874 3.68428 1.0874 4.31865 1.47803 4.70928L4.77178 7.9999L1.48115 11.2937C1.09053 11.6843 1.09053 12.3187 1.48115 12.7093C1.87178 13.0999 2.50615 13.0999 2.89678 12.7093L6.1874 9.41553L9.48115 12.7062C9.87178 13.0968 10.5062 13.0968 10.8968 12.7062C11.2874 12.3155 11.2874 11.6812 10.8968 11.2905L7.60303 7.9999L10.8937 4.70615Z" fill="#EF4444"/>
</g>
</svg>
