<?xml version="1.0" encoding="utf-8"?>
<svg xmlns="http://www.w3.org/2000/svg" viewBox="242 244 16 12" width="16px" height="12px">
<path id="Vector" d="M 244 245.5 C 243.725 245.5 243.5 245.725 243.5 246 L 243.5 246.69 L 248.891 251.115 C 249.538 251.647 250.466 251.647 251.113 251.115 L 256.5 246.69 L 256.5 246 C 256.5 245.725 256.275 245.5 256 245.5 L 244 245.5 Z M 243.5 248.631 L 243.5 254 C 243.5 254.275 243.725 254.5 244 254.5 L 256 254.5 C 256.275 254.5 256.5 254.275 256.5 254 L 256.5 248.631 L 252.063 252.275 C 250.863 253.259 249.134 253.259 247.938 252.275 L 243.5 248.631 Z M 242 246 C 242 244.897 242.897 244 244 244 L 256 244 C 257.103 244 258 244.897 258 246 L 258 254 C 258 255.103 257.103 256 256 256 L 244 256 C 242.897 256 242 255.103 242 254 L 242 246 Z" fill="#9CA3AF" transform="matrix(1, 0, 0, 1, -1.4210854715202004e-14, 0)"/>
</svg>