<svg width="15" height="15" viewBox="0 0 15 15" fill="none" xmlns="http://www.w3.org/2000/svg">
<g id="Frame">
<g clip-path="url(#clip0_103_1935)">
<path id="Vector" d="M5.59375 3.61563C5.59375 3.36406 5.43516 3.14258 5.23281 2.99219C4.91563 2.7543 4.71875 2.42617 4.71875 2.0625C4.71875 1.33789 5.50352 0.75 6.46875 0.75C7.43398 0.75 8.21875 1.33789 8.21875 2.0625C8.21875 2.42617 8.02188 2.7543 7.70469 2.99219C7.50234 3.14258 7.34375 3.36406 7.34375 3.61563C7.34375 3.96563 7.62813 4.25 7.97813 4.25H9.53125C10.2559 4.25 10.8438 4.83789 10.8438 5.5625V7.11562C10.8438 7.46563 11.1281 7.75 11.4781 7.75C11.7297 7.75 11.9512 7.59141 12.1016 7.38906C12.3395 7.07188 12.6676 6.875 13.0312 6.875C13.7559 6.875 14.3438 7.65977 14.3438 8.625C14.3438 9.59023 13.7559 10.375 13.0312 10.375C12.6676 10.375 12.3395 10.1781 12.1016 9.86094C11.9512 9.65859 11.7297 9.5 11.4781 9.5C11.1281 9.5 10.8438 9.78438 10.8438 10.1344V13.4375C10.8438 14.1621 10.2559 14.75 9.53125 14.75H7.97813C7.62813 14.75 7.34375 14.4656 7.34375 14.1156C7.34375 13.8641 7.50234 13.6426 7.70469 13.4922C8.02188 13.2543 8.21875 12.9262 8.21875 12.5625C8.21875 11.8379 7.43398 11.25 6.46875 11.25C5.50352 11.25 4.71875 11.8379 4.71875 12.5625C4.71875 12.9262 4.91563 13.2543 5.23281 13.4922C5.43516 13.6426 5.59375 13.8641 5.59375 14.1156C5.59375 14.4656 5.30938 14.75 4.95937 14.75H1.65625C0.931641 14.75 0.34375 14.1621 0.34375 13.4375V10.1344C0.34375 9.78438 0.628125 9.5 0.978125 9.5C1.22969 9.5 1.45117 9.65859 1.60156 9.86094C1.83945 10.1781 2.16758 10.375 2.53125 10.375C3.25586 10.375 3.84375 9.59023 3.84375 8.625C3.84375 7.65977 3.25586 6.875 2.53125 6.875C2.16758 6.875 1.83945 7.07188 1.60156 7.38906C1.45117 7.59141 1.22969 7.75 0.978125 7.75C0.628125 7.75 0.34375 7.46563 0.34375 7.11562V5.5625C0.34375 4.83789 0.931641 4.25 1.65625 4.25H4.95937C5.30938 4.25 5.59375 3.96563 5.59375 3.61563Z" fill="#B45309"/>
</g>
</g>
<defs>
<clipPath id="clip0_103_1935">
<path d="M0.34375 0.75H14.3438V14.75H0.34375V0.75Z" fill="white"/>
</clipPath>
</defs>
</svg>
