<svg width="13" height="15" viewBox="0 0 13 15" fill="none" xmlns="http://www.w3.org/2000/svg">
<g id="Frame">
<g clip-path="url(#clip0_103_1938)">
<path id="Vector" d="M11.6094 0.75C11.1719 0.75 8.10938 1.625 8.10938 5.5625V8.625C8.10938 9.59023 8.89414 10.375 9.85938 10.375H10.7344V13.875C10.7344 14.359 11.1254 14.75 11.6094 14.75C12.0934 14.75 12.4844 14.359 12.4844 13.875V10.375V7.3125V1.625C12.4844 1.14102 12.0934 0.75 11.6094 0.75ZM1.98438 1.1875C1.98438 0.963281 1.81758 0.777344 1.59336 0.752734C1.36914 0.728125 1.16953 0.875781 1.12031 1.0918L0.291797 4.81875C0.253516 4.99102 0.234375 5.16602 0.234375 5.34102C0.234375 6.59609 1.19414 7.62695 2.42188 7.73906V13.875C2.42188 14.359 2.81289 14.75 3.29688 14.75C3.78086 14.75 4.17188 14.359 4.17188 13.875V7.73906C5.39961 7.62695 6.35938 6.59609 6.35938 5.34102C6.35938 5.16602 6.34023 4.99102 6.30195 4.81875L5.47344 1.0918C5.42422 0.873047 5.21914 0.728125 4.99766 0.752734C4.77617 0.777344 4.60938 0.963281 4.60938 1.1875V4.85703C4.60938 5.00469 4.48906 5.125 4.34141 5.125C4.20195 5.125 4.08711 5.01836 4.07344 4.87891L3.73164 1.14922C3.7125 0.922266 3.52383 0.75 3.29688 0.75C3.06992 0.75 2.88125 0.922266 2.86211 1.14922L2.52305 4.87891C2.50937 5.01836 2.39453 5.125 2.25508 5.125C2.10742 5.125 1.98711 5.00469 1.98711 4.85703V1.1875H1.98438ZM3.30508 5.34375H3.29688H3.28867L3.29688 5.32461L3.30508 5.34375Z" fill="#B45309"/>
</g>
</g>
<defs>
<clipPath id="clip0_103_1938">
<path d="M0.234375 0.75H12.4844V14.75H0.234375V0.75Z" fill="white"/>
</clipPath>
</defs>
</svg>
