<svg width="14" height="15" viewBox="0 0 14 15" fill="none" xmlns="http://www.w3.org/2000/svg">
<g id="Frame">
<g clip-path="url(#clip0_103_1929)">
<path id="Vector" d="M13.6473 0.921789C13.8688 1.08585 14 1.34835 14 1.62452V3.59327V10.812C14 12.0206 12.8242 12.9995 11.375 12.9995C9.92578 12.9995 8.75 12.0206 8.75 10.812C8.75 9.60343 9.92578 8.62452 11.375 8.62452C11.6812 8.62452 11.9766 8.66827 12.25 8.75031V4.76905L5.25 6.86905V12.562C5.25 13.7706 4.07422 14.7495 2.625 14.7495C1.17578 14.7495 0 13.7706 0 12.562C0 11.3534 1.17578 10.3745 2.625 10.3745C2.93125 10.3745 3.22656 10.4183 3.5 10.5003V6.21827V4.24952C3.5 3.86398 3.7543 3.52218 4.12344 3.41007L12.8734 0.78507C13.1387 0.705774 13.4258 0.754992 13.6473 0.921789Z" fill="#B45309"/>
</g>
</g>
<defs>
<clipPath id="clip0_103_1929">
<path d="M0 0.75H14V14.75H0V0.75Z" fill="white"/>
</clipPath>
</defs>
</svg>
