<svg width="15" height="15" viewBox="0 0 15 15" fill="none" xmlns="http://www.w3.org/2000/svg">
<g id="Frame">
<g clip-path="url(#clip0_103_1941)">
<path id="Vector" d="M4.1707 2.52188L3.88633 3.375H1.84375C0.878516 3.375 0.09375 4.15977 0.09375 5.125V12.125C0.09375 13.0902 0.878516 13.875 1.84375 13.875H12.3438C13.309 13.875 14.0938 13.0902 14.0938 12.125V5.125C14.0938 4.15977 13.309 3.375 12.3438 3.375H10.3012L10.0168 2.52188C9.83906 1.98594 9.33867 1.625 8.77266 1.625H5.41484C4.84883 1.625 4.34844 1.98594 4.1707 2.52188ZM7.09375 6C7.78994 6 8.45762 6.27656 8.94991 6.76884C9.44219 7.26113 9.71875 7.92881 9.71875 8.625C9.71875 9.32119 9.44219 9.98887 8.94991 10.4812C8.45762 10.9734 7.78994 11.25 7.09375 11.25C6.39756 11.25 5.72988 10.9734 5.23759 10.4812C4.74531 9.98887 4.46875 9.32119 4.46875 8.625C4.46875 7.92881 4.74531 7.26113 5.23759 6.76884C5.72988 6.27656 6.39756 6 7.09375 6Z" fill="#B45309"/>
</g>
</g>
<defs>
<clipPath id="clip0_103_1941">
<path d="M0.09375 0.75H14.0938V14.75H0.09375V0.75Z" fill="white"/>
</clipPath>
</defs>
</svg>
