<svg width="15" height="15" viewBox="0 0 15 15" fill="none" xmlns="http://www.w3.org/2000/svg">
<g id="Frame">
<g clip-path="url(#clip0_103_1932)">
<path id="Vector" d="M2.72734 2.5L5.05703 4.82969C5.67773 4.07773 6.04688 3.1125 6.04688 2.0625C6.04688 1.66055 5.99219 1.27227 5.89102 0.903125C4.69609 1.16016 3.61328 1.7207 2.72734 2.5ZM2.10938 3.11797C1.33008 4.00391 0.769531 5.08672 0.5125 6.28164C0.881641 6.38281 1.26992 6.4375 1.67188 6.4375C2.72187 6.4375 3.68711 6.06836 4.4418 5.45039L2.10938 3.11797ZM7.35938 0.75C7.15977 0.75 6.96016 0.758203 6.76328 0.774609C6.86719 1.1875 6.92188 1.61953 6.92188 2.0625C6.92188 3.35586 6.4543 4.53711 5.68047 5.45312L7.35938 7.13203L11.9914 2.5C10.7555 1.41172 9.13398 0.75 7.35938 0.75ZM1.67188 7.3125C1.22891 7.3125 0.796875 7.25781 0.383984 7.15391C0.367578 7.35078 0.359375 7.55039 0.359375 7.75C0.359375 9.52461 1.02109 11.1461 2.10938 12.382L6.74141 7.75L5.0625 6.07109C4.14648 6.84492 2.96523 7.3125 1.67188 7.3125ZM14.3348 8.34609C14.3512 8.14922 14.3594 7.94961 14.3594 7.75C14.3594 5.97539 13.6977 4.35391 12.6094 3.11797L7.97734 7.75L9.65625 9.42891C10.5695 8.65508 11.7535 8.1875 13.0469 8.1875C13.4898 8.1875 13.9219 8.24219 14.3348 8.34609ZM14.2063 9.21836C13.8371 9.11719 13.4488 9.0625 13.0469 9.0625C11.9969 9.0625 11.0316 9.43164 10.277 10.0496L12.6094 12.382C13.3887 11.4988 13.952 10.416 14.2063 9.21836ZM9.65898 10.6676C9.04102 11.4223 8.67188 12.3875 8.67188 13.4375C8.67188 13.8395 8.72656 14.2277 8.82773 14.5969C10.0227 14.3398 11.1055 13.7793 11.9914 13L9.66172 10.6703L9.65898 10.6676ZM9.03828 10.0469L7.35938 8.36797L2.72734 13C3.96055 14.0883 5.58203 14.75 7.35938 14.75C7.55898 14.75 7.75859 14.7418 7.95547 14.7254C7.85156 14.3125 7.79688 13.8805 7.79688 13.4375C7.79688 12.1441 8.26445 10.9629 9.03828 10.0469Z" fill="#B45309"/>
</g>
</g>
<defs>
<clipPath id="clip0_103_1932">
<path d="M0.359375 0.75H14.3594V14.75H0.359375V0.75Z" fill="white"/>
</clipPath>
</defs>
</svg>
